IKResults
version=1
nRows=14
nColumns=40
inDegrees=yes

Units are S.I. units (second, meters, Newtons, ...)
Angles are in degrees.

endheader
time	pelvis_tilt	pelvis_list	pelvis_rotation	pelvis_tx	pelvis_ty	pelvis_tz	hip_flexion_r	hip_adduction_r	hip_rotation_r	knee_angle_r	knee_angle_r_beta	ankle_angle_r	subtalar_angle_r	mtp_angle_r	hip_flexion_l	hip_adduction_l	hip_rotation_l	knee_angle_l	knee_angle_l_beta	ankle_angle_l	subtalar_angle_l	mtp_angle_l	lumbar_extension	lumbar_bending	lumbar_rotation	arm_flex_r	arm_add_r	arm_rot_r	elbow_flex_r	pro_sup_r	wrist_flex_r	wrist_dev_r	arm_flex_l	arm_add_l	arm_rot_l	elbow_flex_l	pro_sup_l	wrist_flex_l	wrist_dev_l
      0.00000000	     10.07920303	     -5.28164033	      8.96859442	     -0.83074628	      0.92949965	     -1.03130489	      7.66221175	      9.26001412	    -11.62495276	    -22.83524015	     -0.39855013	      3.52688491	     -8.77362194	     -1.00917827	    -22.05400708	     12.28697239	      6.04992770	    -39.49349412	     -0.68929151	    -12.76727967	     16.76528591	      9.76375332	    -17.63051571	      7.32113358	     -6.47593138	    -10.97983711	    -10.01418142	     -8.69887067	     20.26400324	     89.95437384	      0.00000000	      0.00000000	      9.52075822	     10.81884384	      6.26391469	     52.09642644	     89.95437384	      0.00000000	      0.00000000
      0.01000000	     10.30038637	     -5.16334510	      8.82908631	     -0.81726807	      0.93089045	     -1.03078487	      6.38405275	      9.38270251	    -11.52355870	    -22.68002085	     -0.39584104	      4.21061806	     -8.38284767	     -1.11149694	    -20.63843867	     12.24396670	      5.36095077	    -42.37133113	     -0.73951924	    -14.04386695	     17.28210455	     10.04147335	    -17.83168102	      7.10736934	     -6.08845814	    -10.80557026	     -9.95525261	     -8.57215533	     20.76289678	     89.95437384	      0.00000000	      0.00000000	      8.98056490	     10.60657915	      6.44290749	     51.59770293	     89.95437384	      0.00000000	      0.00000000
      0.02000000	     10.70075415	     -4.82134641	      8.30484824	     -0.80409574	      0.93250759	     -1.03012376	      5.00015358	      9.18637428	    -11.45834286	    -22.82970503	     -0.39845352	      4.66485401	     -8.10485788	     -1.16037650	    -19.61008953	     11.73601982	      4.91770276	    -44.85461452	     -0.78286071	    -13.90007895	     17.15758274	      9.82751943	    -18.39786000	      6.60232966	     -5.29709888	    -10.47577417	     -9.92923798	     -8.35702122	     21.16210090	     89.95437384	      0.00000000	      0.00000000	      8.49940607	     10.35146582	      6.62433755	     51.11336280	     89.95437384	      0.00000000	      0.00000000
      0.03000000	     10.89584040	     -4.75692698	      8.57693953	     -0.79117662	      0.93355170	     -1.03026567	      3.57635995	      9.41323438	    -11.12909747	    -22.28590619	     -0.38896244	      5.87914193	     -7.64858791	     -1.32827935	    -17.89801917	     11.69668178	      3.77093293	    -47.53982204	     -0.82972642	    -11.90132838	     17.56640859	      9.62828152	    -18.57278091	      6.58530158	     -5.36202781	    -10.18026455	     -9.96835428	     -7.84124013	     21.80900623	     89.95437384	      0.00000000	      0.00000000	      8.07879579	     10.12674189	      6.94903920	     50.09228007	     89.95437384	      0.00000000	      0.00000000
      0.04000000	     11.15272327	     -4.62016340	      8.51708470	     -0.77857762	      0.93462604	     -1.03019332	      2.28212966	      9.45117813	    -11.06900834	    -22.09974661	     -0.38571334	      6.46606968	     -7.36538049	     -1.40559575	    -16.31154607	     11.43990092	      3.02155365	    -49.89438279	     -0.87082126	     -9.34914426	     17.54417445	      9.31714121	    -18.95931090	      6.40572374	     -5.06647052	     -9.72698245	    -10.03698223	     -7.26327893	     22.35100119	     89.95437384	      0.00000000	      0.00000000	      7.62088215	      9.84310886	      7.36768826	     49.27531130	     89.95437384	      0.00000000	      0.00000000
      0.05000000	     11.48633926	     -4.54093710	      8.47148087	     -0.76590268	      0.93581843	     -1.03008276	      0.85417075	      9.58605379	    -10.86927921	    -21.78482449	     -0.38021691	      7.07078618	     -7.09541777	     -1.49264971	    -14.74831666	     11.26089703	      2.46256120	    -51.98729799	     -0.90734952	     -6.95206390	     17.62651678	      9.06366996	    -19.41747283	      6.32959747	     -4.79615696	     -9.20282474	    -10.16178595	     -6.49506428	     22.81697477	     89.95437384	      0.00000000	      0.00000000	      7.20258561	      9.49899370	      7.95973603	     48.14347314	     89.95437384	      0.00000000	      0.00000000
      0.06000000	     11.79615400	     -4.42812391	      8.42302551	     -0.75333997	      0.93691187	     -1.03024326	     -0.60686892	      9.65513743	    -10.69026438	    -21.34540236	     -0.37254755	      7.53448556	     -6.90009865	     -1.56279305	    -13.27904911	     10.94704749	      1.98402071	    -53.57336268	     -0.93503157	     -4.70449252	     17.68437045	      8.82277798	    -19.86108003	      6.22892721	     -4.53459043	     -8.67238486	    -10.35120199	     -5.68214567	     23.37363926	     89.95437384	      0.00000000	      0.00000000	      6.79138856	      9.07794675	      8.67912794	     46.89760245	     89.95437384	      0.00000000	      0.00000000
      0.07000000	     12.13948316	     -4.20052394	      8.26263512	     -0.74072009	      0.93808983	     -1.03017161	     -2.13277634	      9.61070853	    -10.36161571	    -20.91831542	     -0.36509348	      7.96384485	     -6.72085425	     -1.61797099	    -11.73643752	     10.53766098	      1.70525195	    -55.04814770	     -0.96077142	     -2.84788266	     17.80490334	      8.64884915	    -20.35107953	      5.94929374	     -4.23469790	     -8.07838865	    -10.49541007	     -4.92883543	     23.89149877	     89.95437384	      0.00000000	      0.00000000	      6.36965356	      8.80292948	      9.22441225	     45.51978327	     89.95437384	      0.00000000	      0.00000000
      0.08000000	     12.42079297	     -4.01269788	      8.05060215	     -0.72838701	      0.93917983	     -1.02998955	     -3.60467323	      9.61085072	     -9.92031106	    -20.36861338	     -0.35549937	      8.12866817	     -6.81662040	     -1.63221006	     -9.97768895	     10.15835078	      1.52712895	    -56.46045574	     -0.98542085	     -1.24600599	     17.75706545	      8.78341768	    -20.82574896	      5.68959588	     -4.02334623	     -7.43367500	    -10.81787696	     -3.50345130	     24.59110309	     89.95437384	      0.00000000	      0.00000000	      5.85700508	      8.46376829	     10.20235093	     44.14883568	     89.95437384	      0.00000000	      0.00000000
      0.09000000	     12.60540540	     -3.71896946	      7.86387840	     -0.71596291	      0.94004099	     -1.02988491	     -4.98048435	      9.44265521	     -9.66419056	    -19.88190837	     -0.34700476	      8.59000521	     -6.60834955	     -1.68109031	     -8.44550804	      9.56501221	      1.36124719	    -57.14068278	     -0.99729305	      0.99954945	     17.90789063	      8.58766210	    -21.14731808	      5.31676627	     -3.73339268	     -6.76520146	    -10.87964799	     -3.17651427	     25.10105293	     89.95437384	      0.00000000	      0.00000000	      5.48987850	      8.24204723	     10.68876178	     42.46042817	     89.95437384	      0.00000000	      0.00000000
      0.10000000	     12.78007210	     -3.34715723	      7.49822251	     -0.70346050	      0.94088588	     -1.02963102	     -6.40552806	      9.14592975	     -9.35023558	    -19.33124133	     -0.33739381	      8.93585805	     -6.30030436	     -1.71305725	     -6.88133107	      8.83940064	      1.35633866	    -57.68392084	     -1.00677434	      3.48771459	     17.84184436	      8.31053561	    -21.48147353	      4.79849809	     -3.34934097	     -6.15396753	    -11.00365332	     -2.74951039	     25.79380565	     89.95437384	      0.00000000	      0.00000000	      5.07863551	      8.02577858	     11.30994288	     40.71424079	     89.95437384	      0.00000000	      0.00000000
      0.11000000	     13.02043797	     -2.98599211	      7.10277799	     -0.69092057	      0.94167100	     -1.02929462	     -7.93998795	      8.85669618	     -8.97966777	    -18.71614910	     -0.32665843	      9.27134532	     -5.98508350	     -1.72734338	     -5.35492333	      8.20141257	      1.47760537	    -57.95882555	     -1.01157234	      4.38906354	     17.91373670	      8.34936881	    -21.87653073	      4.28803070	     -2.97465245	     -5.62452807	    -11.23707148	     -1.91086179	     26.73581116	     89.95437384	      0.00000000	      0.00000000	      4.67540581	      7.76828856	     12.20663115	     38.92254608	     89.95437384	      0.00000000	      0.00000000
      0.12000000	     13.06712561	     -2.60042255	      6.74458048	     -0.67853052	      0.94207535	     -1.02897405	     -9.19834188	      8.49379734	     -8.70029716	    -18.19644639	     -0.31758790	      9.70761949	     -5.72217202	     -1.75193212	     -3.70763101	      7.43907600	      1.55431367	    -57.92035224	     -1.01090085	      6.63740381	     17.85444223	      8.14725027	    -22.04173848	      3.72382271	     -2.66998727	     -5.03152141	    -11.36521582	     -1.56204602	     27.57736637	     89.95437384	      0.00000000	      0.00000000	      4.24971554	      7.65361227	     12.74737694	     37.06652215	     89.95437384	      0.00000000	      0.00000000
      0.13000000	     13.13498690	     -2.24344253	      6.28043534	     -0.66615357	      0.94233075	     -1.02858846	    -10.44292715	      8.10307456	     -8.44138442	    -17.73053794	     -0.30945627	     10.07973090	     -5.45065589	     -1.75101079	     -2.16321658	      6.76126139	      1.86255386	    -57.54414304	     -1.00433476	      7.65373294	     17.88600640	      8.05845127	    -22.24401943	      3.17391277	     -2.26294279	     -4.54449246	    -11.53117372	     -1.36641297	     28.76174505	     89.95437384	      0.00000000	      0.00000000	      3.80103547	      7.52664136	     13.38966692	     35.22549568	     89.95437384	      0.00000000	      0.00000000
